<?xml version="1.0" encoding="UTF-8"?>
<svg version="1.1" xmlns="http://www.w3.org/2000/svg" width="311" height="250">
<path d="M0 0 C2.81308802 0.00848923 5.62412392 -0.0203109 8.43701172 -0.05200195 C23.72669984 -0.11286921 37.51653217 2.22787569 51.70654297 8.13354492 C52.53782715 8.47385742 53.36911133 8.81416992 54.22558594 9.16479492 C66.15871891 14.20470518 76.80673368 20.92890653 86.58154297 29.44604492 C87.49677734 30.22850586 88.41201172 31.0109668 89.35498047 31.81713867 C112.6796628 52.29812686 127.69033494 82.63664254 129.80053711 113.66625977 C131.09123894 150.12387093 122.43014925 183.91433321 97.22607422 211.14135742 C78.80532037 230.3869981 58.19240295 241.22758425 32.58154297 248.44604492 C31.8305835 248.66099609 31.07962402 248.87594727 30.3059082 249.09741211 C22.37568652 251.02353154 14.21032102 250.81819097 6.09838867 250.81665039 C3.54845882 250.8209948 1.00030544 250.8573236 -1.54931641 250.89526367 C-16.52395243 250.99999028 -30.01700425 248.40157697 -43.85595703 242.50854492 C-44.70303223 242.15646973 -45.55010742 241.80439453 -46.42285156 241.44165039 C-48.76238133 240.45988747 -51.09174536 239.45772922 -53.41845703 238.44604492 C-54.40716797 238.02452148 -55.39587891 237.60299805 -56.41455078 237.16870117 C-85.13715576 223.91574222 -105.48025106 196.79385126 -116.51367188 167.98217773 C-127.75345479 136.47681754 -126.40740706 101.37313496 -112.29589844 71.0324707 C-96.74672047 39.62922892 -70.57379543 17.01006562 -37.64013672 5.33374023 C-35.57972282 4.6469356 -33.50761694 4.03978023 -31.41845703 3.44604492 C-30.54318359 3.17896729 -29.66791016 2.91188965 -28.76611328 2.63671875 C-19.20890181 0.03700308 -9.83123676 -0.04509742 0 0 Z M-52.35595703 92.69604492 C-52.88189453 93.56229492 -52.88189453 93.56229492 -53.41845703 94.44604492 C-52.75845703 95.10604492 -52.09845703 95.76604492 -51.41845703 96.44604492 C-48.81396553 96.17188792 -46.87222285 95.71204557 -44.60595703 94.38354492 C-41.14116792 92.8986353 -38.06062668 92.71272217 -34.41845703 93.44604492 C-32.61503834 94.3860086 -30.84542195 95.39242617 -29.10595703 96.44604492 C-23.43221049 99.73290499 -18.89593678 100.87530495 -12.41845703 99.44604492 C-9.49096751 98.0523837 -6.758542 96.46245524 -3.97314453 94.80541992 C-0.27040289 92.83515373 2.53226941 92.21946885 6.58154297 93.44604492 C8.19241861 94.40104445 9.77413817 95.40612439 11.33154297 96.44604492 C17.01941212 100.13878459 21.9464591 100.54124446 28.58154297 99.44604492 C32.68927557 98.02185513 35.98221366 95.84559779 39.58154297 93.44604492 C44.35561658 92.96863756 47.23395996 92.95638654 51.33154297 95.50854492 C54.29126165 97.66539675 54.29126165 97.66539675 56.95654297 97.38354492 C58.93918679 96.47929625 58.93918679 96.47929625 59.58154297 93.44604492 C53.88558934 88.41241148 49.67970128 85.95439723 41.91357422 86.12182617 C38.00725425 86.66491588 34.9595066 88.50388924 31.58154297 90.44604492 C26.33197213 93.11687921 23.31687706 94.09859881 17.58154297 92.44604492 C15.95935485 91.45409881 14.35645367 90.43024385 12.76904297 89.38354492 C8.42170043 86.66727795 5.22811861 85.54231918 0.09326172 85.84057617 C-3.80402951 86.78004762 -6.78756386 88.84391692 -10.10595703 91.03198242 C-13.28346548 92.9749859 -15.70353903 93.51613771 -19.41845703 93.44604492 C-22.5933068 92.34927864 -25.41112283 91.02521038 -28.32080078 89.35229492 C-36.99426581 84.54324501 -45.55158437 84.7941928 -52.35595703 92.69604492 Z M-52.41845703 116.44604492 C-52.09993933 118.55425289 -52.09993933 118.55425289 -51.41845703 120.44604492 C-47.68357926 119.94806122 -45.60608069 119.57112736 -42.41845703 117.44604492 C-36.87732901 116.66834274 -34.32929218 117.27064736 -29.73095703 120.44604492 C-23.78140599 124.28446495 -18.33404217 124.77302067 -11.41845703 123.44604492 C-8.65858151 122.09140927 -6.22408074 120.52593535 -3.68017578 118.80541992 C-0.79892631 117.07368449 1.20894958 116.59741546 4.53857422 116.83666992 C7.1429205 117.61349214 9.020243 118.9251174 11.26904297 120.44604492 C17.21859401 124.28446495 22.66595783 124.77302067 29.58154297 123.44604492 C32.34243523 122.09091021 34.77095458 120.53009557 37.30810547 118.79760742 C41.06227573 116.56574675 43.28374896 116.74148853 47.58154297 117.44604492 C49.49169922 118.39526367 49.49169922 118.39526367 51.33154297 119.50854492 C54.30499453 121.71950358 54.30499453 121.71950358 57.01904297 121.19604492 C57.53466797 120.94854492 58.05029297 120.70104492 58.58154297 120.44604492 C58.62664658 118.06707489 58.62664658 118.06707489 57.58154297 115.44604492 C53.04256937 112.17798393 49.26811064 110.54242742 43.58154297 110.44604492 C39.02723476 111.3826452 34.88166879 112.65992233 30.89404297 115.07104492 C27.64642691 117.00205987 25.36952075 117.38291196 21.58154297 117.44604492 C18.44198436 116.38821166 15.54095328 114.92575008 12.58154297 113.44604492 C7.12917719 110.88446175 2.55677681 109.55200853 -3.41845703 111.44604492 C-5.71442796 112.62183626 -7.88500898 113.88365148 -10.04736328 115.28979492 C-13.25481516 116.85389007 -15.85224974 117.28446919 -19.41845703 117.44604492 C-22.62939453 116.26635742 -22.62939453 116.26635742 -25.79345703 114.57104492 C-35.31430937 109.90865957 -44.18210446 108.20969235 -52.41845703 116.44604492 Z M-52.35595703 140.13354492 C-52.70658203 140.56666992 -53.05720703 140.99979492 -53.41845703 141.44604492 C-52.75845703 142.76604492 -52.09845703 144.08604492 -51.41845703 145.44604492 C-48.32488424 144.99110775 -46.36568653 144.41366302 -43.66845703 142.75854492 C-39.11575104 140.91995212 -35.93540375 141.76230851 -31.41845703 143.44604492 C-28.04345703 145.50854492 -28.04345703 145.50854492 -25.41845703 147.44604492 C-20.15477177 149.20060668 -15.86680749 148.96155949 -10.73095703 147.13354492 C-7.49109519 145.5483054 -7.49109519 145.5483054 -4.85595703 143.82104492 C-1.8834429 142.14424208 0.16256679 141.58280397 3.58154297 141.44604492 C6.78101407 142.57178475 9.55655403 143.85793651 12.48779297 145.53979492 C17.56707195 148.36161658 21.77725499 149.47272283 27.58154297 148.44604492 C30.42236997 147.38138398 32.97886207 145.99657823 35.58154297 144.44604492 C40.44375984 141.56840637 43.04547698 141.03686449 48.58154297 142.44604492 C49.44779297 142.98229492 50.31404297 143.51854492 51.20654297 144.07104492 C53.52279165 145.70733283 53.52279165 145.70733283 56.33154297 145.25854492 C58.7537621 144.67607613 58.7537621 144.67607613 59.58154297 142.44604492 C55.69010393 138.22105396 52.73398562 135.85129166 46.96826172 135.11010742 C40.40669204 135.01514983 36.1524589 136.04642139 30.58154297 139.44604492 C26.73697315 141.57776165 24.01714511 141.83513283 19.58154297 141.44604492 C17.08154297 140.13354492 17.08154297 140.13354492 14.58154297 138.44604492 C8.90332672 135.43993044 3.99966402 134.51195219 -2.41845703 135.44604492 C-5.28733374 136.4941937 -7.80426496 137.88209596 -10.41845703 139.44604492 C-14.36169363 141.63845348 -17.95584791 142.29527278 -22.41845703 141.44604492 C-24.42989645 140.33656048 -26.11298768 139.10689941 -27.87548828 137.63745117 C-34.64151029 132.41305443 -46.35750621 134.90908776 -52.35595703 140.13354492 Z " fill="#DECFFC" transform="translate(141.41845703125,-0.446044921875)"/>
<path d="M0 0 C1.34819824 -0.00422974 1.34819824 -0.00422974 2.72363281 -0.00854492 C3.71742447 -0.00652069 4.71121613 -0.00449646 5.73512268 -0.00241089 C6.77568817 -0.00416321 7.81625366 -0.00591553 8.88835144 -0.00772095 C12.34713888 -0.01214214 15.80587568 -0.00920032 19.2646637 -0.00582886 C21.65740977 -0.00650187 24.05015577 -0.00747187 26.44290161 -0.00872803 C31.46593372 -0.0102054 36.48894809 -0.00804936 41.51197815 -0.00338745 C47.96313866 0.00230678 54.41425755 -0.00096699 60.86541653 -0.00695992 C65.80920731 -0.01056707 70.75298817 -0.00942617 75.69677925 -0.00683212 C78.07592333 -0.00616312 80.45506831 -0.00699034 82.83421135 -0.00931168 C86.15537287 -0.01184037 89.47646626 -0.00799434 92.79762268 -0.00241089 C94.28527382 -0.00544724 94.28527382 -0.00544724 95.80297852 -0.00854492 C97.15540649 -0.00431519 97.15540649 -0.00431519 98.53515625 0 C99.32106864 0.00037703 100.10698103 0.00075405 100.91670895 0.0011425 C102.83106995 0.12698364 102.83106995 0.12698364 104.83106995 1.12698364 C105.57356995 1.25073364 106.31606995 1.37448364 107.08106995 1.50198364 C111.50543359 2.50752083 115.08057719 4.62665514 118.83106995 7.12698364 C118.83106995 7.78698364 118.83106995 8.44698364 118.83106995 9.12698364 C119.49106995 9.12698364 120.15106995 9.12698364 120.83106995 9.12698364 C122.0849762 10.73635864 122.0849762 10.73635864 123.39356995 12.87698364 C124.04519104 13.92112427 124.04519104 13.92112427 124.7099762 14.98635864 C126.90763695 19.18258894 127.00484247 23.14853844 127.1474762 27.84573364 C127.16843857 28.52023056 127.18940094 29.19472748 127.21099854 29.8896637 C127.2779923 32.13531193 127.33679093 34.38105485 127.39356995 36.62698364 C127.41375183 37.40010895 127.43393372 38.17323425 127.45472717 38.9697876 C127.78672342 52.0166081 127.98953669 65.06639832 128.0622406 78.11721802 C128.07476151 80.07705448 128.09225315 82.03686569 128.11479187 83.99661255 C128.14460547 86.75767509 128.15455999 89.51812227 128.15919495 92.27932739 C128.17149643 93.10178452 128.18379791 93.92424164 128.19647217 94.7716217 C128.17837346 99.45943431 127.68001606 102.22270455 124.83106995 106.12698364 C124.53458557 106.95842896 124.2381012 107.78987427 123.93263245 108.64651489 C122.53859351 111.78557419 120.73827687 113.50570674 118.20606995 115.81448364 C117.38880432 116.58147583 116.5715387 117.34846802 115.72950745 118.13870239 C108.50418428 123.09515723 99.91343873 122.4320622 91.48360252 122.46250916 C89.24304022 122.47087268 87.00287116 122.49143946 84.76242065 122.51504517 C79.20602279 122.57114369 73.64953017 122.60673612 68.0929718 122.64266968 C63.37938575 122.67390593 58.66599686 122.71305534 53.95256996 122.76292419 C51.74616486 122.78297576 49.5399122 122.79130431 47.33343506 122.79922485 C45.98457782 122.81219311 44.63572573 122.82571281 43.28688049 122.83987427 C42.10965927 122.84716553 40.93243805 122.85445679 39.71954346 122.86196899 C36.63489974 122.91372628 36.63489974 122.91372628 33.83106995 125.12698364 C33.33606995 125.97260864 32.84106995 126.81823364 32.33106995 127.68948364 C30.83106995 130.12698364 30.83106995 130.12698364 27.83106995 131.12698364 C27.54876526 131.70319458 27.26646057 132.27940552 26.9756012 132.87307739 C25.38558473 136.00427022 23.12438237 137.85165734 20.51856995 140.18948364 C19.57368713 141.04671021 18.62880432 141.90393677 17.6552887 142.78713989 C11.12026165 148.20136009 11.12026165 148.20136009 6.58106995 147.93948364 C5.67356995 147.67135864 4.76606995 147.40323364 3.83106995 147.12698364 C2.5524538 144.56975135 2.71770385 142.75961262 2.7334137 139.90042114 C2.73663635 138.86917114 2.73985901 137.83792114 2.74317932 136.77542114 C2.75155823 135.69518677 2.75993713 134.61495239 2.76856995 133.50198364 C2.77308167 132.41401489 2.77759338 131.32604614 2.78224182 130.20510864 C2.79405218 127.51234575 2.81052216 124.81969176 2.83106995 122.12698364 C1.98173889 122.08114136 1.13240784 122.03529907 0.25733948 121.98806763 C-5.9112752 121.62980223 -10.70353888 121.02698712 -16.16893005 118.12698364 C-17.11768005 117.63198364 -18.06643005 117.13698364 -19.04393005 116.62698364 C-21.16893005 115.12698364 -21.16893005 115.12698364 -22.16893005 112.12698364 C-22.81388428 111.82242249 -23.4588385 111.51786133 -24.12333679 111.20407104 C-26.16893005 110.12698364 -26.16893005 110.12698364 -27.20426941 108.24569702 C-29.41538775 100.75340235 -29.57190772 93.6366339 -29.49705505 85.86135864 C-29.49398634 84.49671641 -29.4921187 83.13207102 -29.49137878 81.76742554 C-29.48680428 78.91986913 -29.4724983 76.07259998 -29.45018005 73.22512817 C-29.42200915 69.61712385 -29.41097471 66.00934519 -29.40649796 62.4012413 C-29.40128113 58.90875275 -29.38679903 55.41631758 -29.37205505 51.92385864 C-29.36780518 50.64943909 -29.3635553 49.37501953 -29.35917664 48.0619812 C-29.31092224 41.89442149 -29.16550858 35.73687848 -28.84373474 29.57717896 C-28.75947235 27.93280853 -28.75947235 27.93280853 -28.67350769 26.25521851 C-27.1943348 17.08477599 -20.04355848 8.10492141 -13.16893005 2.12698364 C-10.28462745 1.14608721 -8.31778987 1.12698364 -5.16893005 1.12698364 C-3.61821184 -0.42373457 -2.158553 0.00103602 0 0 Z M-6.10643005 35.37698364 C-6.63236755 36.24323364 -6.63236755 36.24323364 -7.16893005 37.12698364 C-6.50893005 37.78698364 -5.84893005 38.44698364 -5.16893005 39.12698364 C-2.56443856 38.85282664 -0.62269587 38.39298429 1.64356995 37.06448364 C5.10835905 35.57957402 8.1889003 35.39366089 11.83106995 36.12698364 C13.63448864 37.06694732 15.40410502 38.07336489 17.14356995 39.12698364 C22.81731648 42.41384371 27.35359019 43.55624367 33.83106995 42.12698364 C36.75855947 40.73332242 39.49098498 39.14339396 42.27638245 37.48635864 C45.97912409 35.51609245 48.78179639 34.90040757 52.83106995 36.12698364 C54.44194559 37.08198317 56.02366514 38.08706311 57.58106995 39.12698364 C63.2689391 42.81972331 68.19598608 43.22218318 74.83106995 42.12698364 C78.93880255 40.70279385 82.23174064 38.52653651 85.83106995 36.12698364 C90.60514356 35.64957628 93.48348694 35.63732526 97.58106995 38.18948364 C100.54078862 40.34633547 100.54078862 40.34633547 103.20606995 40.06448364 C105.18871377 39.16023497 105.18871377 39.16023497 105.83106995 36.12698364 C100.13511632 31.0933502 95.92922826 28.63533595 88.1631012 28.80276489 C84.25678123 29.3458546 81.20903358 31.18482796 77.83106995 33.12698364 C72.5814991 35.79781793 69.56640404 36.77953753 63.83106995 35.12698364 C62.20888183 34.13503753 60.60598065 33.11118257 59.01856995 32.06448364 C54.6712274 29.34821667 51.47764558 28.2232579 46.3427887 28.52151489 C42.44549747 29.46098634 39.46196312 31.52485564 36.14356995 33.71292114 C32.96606149 35.65592462 30.54598795 36.19707644 26.83106995 36.12698364 C23.65622017 35.03021736 20.83840415 33.7061491 17.9287262 32.03323364 C9.25526117 27.22418373 0.6979426 27.47513152 -6.10643005 35.37698364 Z M-6.16893005 59.12698364 C-5.85041235 61.23519161 -5.85041235 61.23519161 -5.16893005 63.12698364 C-1.43405228 62.62899994 0.64344629 62.25206608 3.83106995 60.12698364 C9.37219797 59.34928146 11.9202348 59.95158608 16.51856995 63.12698364 C22.46812099 66.96540367 27.91548481 67.45395939 34.83106995 66.12698364 C37.59094546 64.77234799 40.02544624 63.20687407 42.5693512 61.48635864 C45.45060067 59.75462321 47.45847655 59.27835418 50.7881012 59.51760864 C53.39244747 60.29443086 55.26976997 61.60605612 57.51856995 63.12698364 C63.46812099 66.96540367 68.91548481 67.45395939 75.83106995 66.12698364 C78.59196221 64.77184893 81.02048156 63.21103429 83.55763245 61.47854614 C87.31180271 59.24668547 89.53327593 59.42242725 93.83106995 60.12698364 C95.7412262 61.07620239 95.7412262 61.07620239 97.58106995 62.18948364 C100.5545215 64.4004423 100.5545215 64.4004423 103.26856995 63.87698364 C103.78419495 63.62948364 104.29981995 63.38198364 104.83106995 63.12698364 C104.87617356 60.74801361 104.87617356 60.74801361 103.83106995 58.12698364 C99.29209635 54.85892265 95.51763761 53.22336615 89.83106995 53.12698364 C85.27676174 54.06358392 81.13119576 55.34086105 77.14356995 57.75198364 C73.89595389 59.68299859 71.61904773 60.06385068 67.83106995 60.12698364 C64.69151134 59.06915038 61.79048026 57.6066888 58.83106995 56.12698364 C53.37870416 53.56540047 48.80630379 52.23294725 42.83106995 54.12698364 C40.53509902 55.30277498 38.36451799 56.56459021 36.2021637 57.97073364 C32.99471181 59.53482879 30.39727724 59.96540791 26.83106995 60.12698364 C23.62013245 58.94729614 23.62013245 58.94729614 20.45606995 57.25198364 C10.93521761 52.58959829 2.06742252 50.89063107 -6.16893005 59.12698364 Z M-6.10643005 82.81448364 C-6.45705505 83.24760864 -6.80768005 83.68073364 -7.16893005 84.12698364 C-6.50893005 85.44698364 -5.84893005 86.76698364 -5.16893005 88.12698364 C-2.07535726 87.67204647 -0.11615955 87.09460174 2.58106995 85.43948364 C7.13377594 83.60089084 10.31412323 84.44324723 14.83106995 86.12698364 C18.20606995 88.18948364 18.20606995 88.18948364 20.83106995 90.12698364 C26.09475521 91.8815454 30.38271949 91.64249821 35.51856995 89.81448364 C38.75843179 88.22924412 38.75843179 88.22924412 41.39356995 86.50198364 C44.36608407 84.8251808 46.41209377 84.26374269 49.83106995 84.12698364 C53.03054105 85.25272347 55.806081 86.53887523 58.73731995 88.22073364 C63.81659893 91.0425553 68.02678197 92.15366155 73.83106995 91.12698364 C76.67189695 90.0623227 79.22838904 88.67751695 81.83106995 87.12698364 C86.69328682 84.24934509 89.29500396 83.71780321 94.83106995 85.12698364 C95.69731995 85.66323364 96.56356995 86.19948364 97.45606995 86.75198364 C99.77231863 88.38827155 99.77231863 88.38827155 102.58106995 87.93948364 C105.00328908 87.35701485 105.00328908 87.35701485 105.83106995 85.12698364 C101.9396309 80.90199268 98.9835126 78.53223038 93.2177887 77.79104614 C86.65621902 77.69608855 82.40198588 78.72736011 76.83106995 82.12698364 C72.98650013 84.25870037 70.26667209 84.51607155 65.83106995 84.12698364 C63.33106995 82.81448364 63.33106995 82.81448364 60.83106995 81.12698364 C55.1528537 78.12086916 50.249191 77.19289091 43.83106995 78.12698364 C40.96219323 79.17513242 38.44526201 80.56303468 35.83106995 82.12698364 C31.88783335 84.3193922 28.29367907 84.9762115 23.83106995 84.12698364 C21.81963053 83.0174992 20.13653929 81.78783813 18.3740387 80.31838989 C11.60801669 75.09399315 -0.10797923 77.59002648 -6.10643005 82.81448364 Z " fill="#AF8FFB" transform="translate(95.16893005371094,56.873016357421875)"/>
<path d="M0 0 C7.67937009 8.68102705 4.54517861 27.22837255 4 38 C0.54705574 73.11026196 -16.76146158 102.7891524 -43.74853516 125.07348633 C-49.16893531 129.36766847 -54.92864667 132.84071048 -61 136.125 C-62.07761597 136.71148315 -62.07761597 136.71148315 -63.17700195 137.30981445 C-66.9127265 139.24345117 -69.67889562 140.52325873 -74 140 C-73.278125 139.443125 -72.55625 138.88625 -71.8125 138.3125 C-69.00520981 136.08386307 -69.00520981 136.08386307 -66.69140625 133.671875 C-61.15986758 128.18047812 -54.97775754 122.39590184 -48.0625 118.6875 C-44.71552428 116.84324807 -42.58889067 114.79327678 -40 112 C-35.33333333 107.11111111 -35.33333333 107.11111111 -32 106 C-31.85175781 105.40703125 -31.70351562 104.8140625 -31.55078125 104.203125 C-30.81165 101.24660002 -29.29685016 99.92587883 -27.1875 97.75 C-24.06060774 94.34491448 -21.82967226 91.26241005 -19.94140625 87.0625 C-18.83232537 84.63264645 -17.55653115 82.32919201 -16.25 80 C-15.82203125 79.236875 -15.3940625 78.47375 -14.953125 77.6875 C-14.63859375 77.130625 -14.3240625 76.57375 -14 76 C-13.34 76 -12.68 76 -12 76 C-11.9175 75.21625 -11.835 74.4325 -11.75 73.625 C-10.75634931 68.822355 -8.91286482 64.50190511 -7 60 C-6.34 60 -5.68 60 -5 60 C-5.27444946 59.12674072 -5.27444946 59.12674072 -5.55444336 58.23583984 C-6.14234956 55.28567822 -5.33171858 52.96458821 -4.54736328 50.11035156 C-1.77449149 39.41958272 -1.7248719 27.73214468 -1.34155273 16.75146484 C-1.13928919 11.12015809 -0.68785557 5.5938007 0 0 Z " fill="#D1BFF7" transform="translate(267,100)"/>
<path d="M0 0 C1.27712025 3.83136076 0.94028376 6.37341356 -0.81640625 10.00390625 C-10.80659996 26.85205471 -27.97554029 40.92318102 -45 50.125 C-45.71833008 50.5159082 -46.43666016 50.90681641 -47.17675781 51.30957031 C-50.91251277 53.24343498 -53.67877655 54.52327315 -58 54 C-57.278125 53.443125 -56.55625 52.88625 -55.8125 52.3125 C-53.00520981 50.08386307 -53.00520981 50.08386307 -50.69140625 47.671875 C-45.15986758 42.18047812 -38.97775754 36.39590184 -32.0625 32.6875 C-28.71552428 30.84324807 -26.58889067 28.79327678 -24 26 C-19.33333333 21.11111111 -19.33333333 21.11111111 -16 20 C-15.85304687 19.40960938 -15.70609375 18.81921875 -15.5546875 18.2109375 C-14.80485767 15.22217916 -13.24383452 13.8369701 -11.125 11.625 C-8.0145471 8.25904561 -5.89245539 5.20545643 -4 1 C-2 0 -2 0 0 0 Z " fill="#C9B4F8" transform="translate(251,186)"/>
<path d="M0 0 C3.5348448 1.72419049 6.83667553 3.65991776 10 6 C10 6.33 10 6.66 10 7 C6.625 7.1875 6.625 7.1875 3 7 C2.34 6.01 1.68 5.02 1 4 C-2.88664591 2.97333882 -5.07447775 2.55827347 -8.75 4.3125 C-9.4925 4.869375 -10.235 5.42625 -11 6 C-11.99 6.66 -12.98 7.32 -14 8 C-14.66 7.67 -15.32 7.34 -16 7 C-16 7.66 -16 8.32 -16 9 C-16.66 9 -17.32 9 -18 9 C-18.33 9.66 -18.66 10.32 -19 11 C-32.60336938 9.99625624 -32.60336938 9.99625624 -38 4 C-37.67 3.34 -37.34 2.68 -37 2 C-35.6078125 2.99 -35.6078125 2.99 -34.1875 4 C-29.24819781 6.76282899 -24.51882644 7.02503102 -19 6 C-16.0627633 4.61730082 -13.34333662 3.01834473 -10.5546875 1.359375 C-6.83105726 -0.62200623 -4.06911476 -1.19679846 0 0 Z " fill="#BFAAF3" transform="translate(148,92)"/>
<path d="M0 0 C0.66 0.33 1.32 0.66 2 1 C1.2575 1.680625 0.515 2.36125 -0.25 3.0625 C-3.25269695 6.05669072 -5.02516604 9.25462525 -7 13 C-7.391875 13.70125 -7.78375 14.4025 -8.1875 15.125 C-12.46223037 24.9897624 -11.13805222 37.82497335 -11.09765625 48.29296875 C-11.09578639 49.73456269 -11.09436518 51.17615727 -11.09336853 52.61775208 C-11.08958803 56.37413349 -11.07979705 60.13047496 -11.06866455 63.88684082 C-11.05835324 67.73510193 -11.05385029 71.58336962 -11.04882812 75.43164062 C-11.03816981 82.9544451 -11.02114852 90.47721691 -11 98 C-11.66 98 -12.32 98 -13 98 C-13.0465417 88.67197675 -13.08197939 79.34399408 -13.10362434 70.01587963 C-13.11401795 65.68347735 -13.1280954 61.35115508 -13.15087891 57.01879883 C-13.17276625 52.83017005 -13.1846018 48.64161777 -13.18975449 44.45293617 C-13.19342193 42.86272288 -13.2005827 41.27251331 -13.21146011 39.68233299 C-13.30534035 25.37615226 -13.22587653 13.18785705 -2.6875 2.5 C-1.800625 1.675 -0.91375 0.85 0 0 Z " fill="#D3BFFD" transform="translate(78,61)"/>
<path d="M0 0 C-0.33 0.66 -0.66 1.32 -1 2 C-3.00390625 2.30859375 -3.00390625 2.30859375 -5.5625 2.4375 C-10.51989188 2.8335256 -14.45141537 4.08741431 -19 6 C-24.28659476 7.79969183 -24.28659476 7.79969183 -26.80859375 8.5078125 C-37.64001722 11.74290684 -48.27155199 17.34382924 -57.3984375 23.96875 C-59 25 -59 25 -61 25 C-61.226875 25.5775 -61.45375 26.155 -61.6875 26.75 C-63.73758279 30.26442764 -66.43333277 32.49189171 -70.3125 33.75 C-70.869375 33.8325 -71.42625 33.915 -72 34 C-57.66083617 14.84721616 -23.85895454 -0.63623879 0 0 Z " fill="#F0E9FC" transform="translate(129,0)"/>
<path d="M0 0 C1.38396217 -0.00412399 1.38396217 -0.00412399 2.79588318 -0.0083313 C3.80073257 -0.00114075 4.80558197 0.0060498 5.84088135 0.01345825 C6.90460464 0.0131662 7.96832794 0.01287415 9.06428528 0.01257324 C12.58137154 0.01396693 16.09824614 0.02953022 19.61529541 0.04519653 C22.05338424 0.04892652 24.49147457 0.05177356 26.92956543 0.05377197 C33.34769832 0.06140955 39.76574075 0.08105921 46.18383789 0.10317993 C52.73259253 0.12363561 59.28136178 0.1327731 65.83013916 0.14285278 C78.68043818 0.1643049 91.53067448 0.19805818 104.38092041 0.24050903 C104.38092041 0.57050903 104.38092041 0.90050903 104.38092041 1.24050903 C92.93999271 1.372034 81.49905343 1.50249847 70.05809879 1.63166046 C64.74390643 1.69168696 59.4297185 1.75205983 54.11553955 1.81326294 C48.9737738 1.87246699 43.83199794 1.93071073 38.69021416 1.98832703 C36.74212707 2.01031772 34.79404366 2.03263715 32.84596443 2.05531311 C30.98686084 2.07691302 29.1277519 2.09805854 27.26863766 2.11872101 C25.49616814 2.13843803 23.72370943 2.15915554 21.95126438 2.18096161 C17.74762241 2.22773791 13.54860752 2.24049198 9.34500122 2.18362427 C8.55516311 2.17504143 7.76532499 2.16645859 6.95155239 2.15761566 C5.47214134 2.13916423 3.99280167 2.1124204 2.51372623 2.07590485 C0.80202833 2.05589737 -0.91026737 2.13916403 -2.61907959 2.24050903 C-3.27907959 2.90050903 -3.93907959 3.56050903 -4.61907959 4.24050903 C-5.93907959 3.58050903 -7.25907959 2.92050903 -8.61907959 2.24050903 C-5.60995124 0.50856101 -3.45962864 -0.00797149 0 0 Z " fill="#D4C2F9" transform="translate(93.61907958984375,55.759490966796875)"/>
<path d="M0 0 C2.06428157 0.25690181 4.12641094 0.53113046 6.1875 0.8125 C7.91033203 1.03873047 7.91033203 1.03873047 9.66796875 1.26953125 C14.22676944 2.26894008 17.0256171 3.73330224 19.875 7.4375 C21 10 21 10 20.6875 12.3125 C20.460625 12.869375 20.23375 13.42625 20 14 C18.02 14.33 16.04 14.66 14 15 C15.32 14.34 16.64 13.68 18 13 C17.95231597 11.12119128 17.95231597 11.12119128 17 9 C11.12295835 4.52833788 6.25415535 3.12714228 -1 4 C-3.83645098 5.05518066 -6.38084227 6.49411876 -9 8 C-14.24359109 10.66779196 -17.2207381 11.29738532 -23 10 C-23 9.67 -23 9.34 -23 9 C-22.11248047 8.96132812 -22.11248047 8.96132812 -21.20703125 8.921875 C-15.81612612 8.53492586 -13.10130457 7.73942476 -9 4 C-8.01 4 -7.02 4 -6 4 C-6 3.34 -6 2.68 -6 2 C-4.02 2 -2.04 2 0 2 C0 1.34 0 0.68 0 0 Z " fill="#C6B4F3" transform="translate(182,83)"/>
<path d="M0 0 C0.75539063 -0.00322266 1.51078125 -0.00644531 2.2890625 -0.00976562 C6.50583157 0.03078023 9.77824919 0.3891246 13.625 2.3125 C13.625 2.9725 13.625 3.6325 13.625 4.3125 C12.655625 3.9825 11.68625 3.6525 10.6875 3.3125 C4.81433523 1.67513285 -0.81752606 1.14331975 -6.3125 4.125 C-9.51605566 6.13987474 -9.51605566 6.13987474 -11.375 9.3125 C-9.11739143 10.09920551 -9.11739143 10.09920551 -6.375 10.3125 C-5.2303125 9.6009375 -5.2303125 9.6009375 -4.0625 8.875 C-0.2452972 6.65569605 2.24436876 6.95343187 6.625 7.3125 C7.285 7.9725 7.945 8.6325 8.625 9.3125 C8.02171875 9.28929688 7.4184375 9.26609375 6.796875 9.2421875 C5.99765625 9.22414063 5.1984375 9.20609375 4.375 9.1875 C3.19164062 9.15269531 3.19164062 9.15269531 1.984375 9.1171875 C-0.62114317 9.33287609 -2.17486977 9.9203822 -4.375 11.3125 C-4.705 11.9725 -5.035 12.6325 -5.375 13.3125 C-8.25 13.4375 -8.25 13.4375 -11.375 13.3125 C-12.035 12.6525 -12.695 11.9925 -13.375 11.3125 C-12.93561956 7.88533257 -12.17869105 4.60263564 -10.3359375 1.64453125 C-7.1606711 -0.51237282 -3.70019864 -0.07812919 0 0 Z " fill="#D0BEF8" transform="translate(100.375,84.6875)"/>
<path d="M0 0 C-1.06562805 1.47871399 -1.06562805 1.47871399 -3 3 C-6.09416199 3.36076355 -6.09416199 3.36076355 -9.94995117 3.34057617 C-10.65264633 3.34101425 -11.35534149 3.34145233 -12.07933044 3.34190369 C-14.40082636 3.33981447 -16.72159909 3.31647819 -19.04296875 3.29296875 C-20.65293483 3.28737324 -22.26290602 3.28310293 -23.87287903 3.28010559 C-28.10954907 3.26865318 -32.3459104 3.23918279 -36.5824585 3.20599365 C-40.9058413 3.17530119 -45.22927401 3.16160203 -49.55273438 3.14648438 C-58.0352979 3.1143133 -66.51761054 3.06311238 -75 3 C-75 2.67 -75 2.34 -75 2 C-73.72879807 1.9845388 -73.72879807 1.9845388 -72.43191528 1.96876526 C-64.4563182 1.8709021 -56.4807972 1.76840373 -48.50532722 1.66066074 C-44.4047835 1.60542983 -40.30423265 1.55200956 -36.20361328 1.50268555 C-32.24838828 1.45504447 -28.2932512 1.40270176 -24.33813095 1.34705925 C-22.82703711 1.32663453 -21.31591916 1.30792164 -19.80478287 1.29092598 C-17.69284576 1.26688449 -15.58107532 1.23682978 -13.46923828 1.20532227 C-12.26566681 1.18977798 -11.06209534 1.1742337 -9.822052 1.15821838 C-6.3110438 0.96137366 -3.64313673 -0.09587202 0 0 Z " fill="#9570F1" transform="translate(207,175)"/>
<path d="M0 0 C2.57418259 1.11289849 4.65030581 2.43353721 7 4 C5.25 4.625 5.25 4.625 3 5 C1.66666667 4.33333333 0.33333333 3.66666667 -1 3 C-3.66360025 2.52874765 -6.30493254 2.26950675 -9 2 C-9.185625 2.598125 -9.37125 3.19625 -9.5625 3.8125 C-11.7004147 7.06584845 -14.32736246 8.15246826 -18 9 C-22.01433148 9.23554754 -25.98425072 9.17803815 -30 9 C-30 8.34 -30 7.68 -30 7 C-29.29875 6.97421875 -28.5975 6.9484375 -27.875 6.921875 C-17.88797984 6.32482488 -9.48355202 -1.48829466 0 0 Z " fill="#CFBDF8" transform="translate(189,92)"/>
<path d="M0 0 C6.34503341 1.18482196 12.64611458 2.56051926 18.9375 4 C19.68314209 4.1659668 20.42878418 4.33193359 21.19702148 4.50292969 C24.62391941 5.29786693 27.04223544 6.02815696 30 8 C22.51943418 8.64860397 15.9686033 7.76307974 8.8125 5.6875 C8.05783447 5.47456299 7.30316895 5.26162598 6.52563477 5.04223633 C4.39453125 4.38671875 4.39453125 4.38671875 1 3 C0.67 2.01 0.34 1.02 0 0 Z " fill="#D2BFF8" transform="translate(101,241)"/>
<path d="M0 0 C0 0.66 0 1.32 0 2 C0.928125 1.95875 1.85625 1.9175 2.8125 1.875 C6 2 6 2 9 4 C9 4.66 9 5.32 9 6 C8.32195312 5.76023437 7.64390625 5.52046875 6.9453125 5.2734375 C-0.68017079 2.84426692 -6.76897945 2.38941536 -14.07421875 6.03515625 C-15.72843945 7.0027193 -17.36558788 7.99933952 -19 9 C-19.99 9 -20.98 9 -22 9 C-22 8.34 -22 7.68 -22 7 C-19 5 -19 5 -16 5 C-16 4.34 -16 3.68 -16 3 C-13.89936424 2.30178583 -11.79434263 1.61675528 -9.6875 0.9375 C-8.51574219 0.55464844 -7.34398437 0.17179687 -6.13671875 -0.22265625 C-3 -1 -3 -1 0 0 Z " fill="#B29BED" transform="translate(189,108)"/>
<path d="M0 0 C0.66 0.66 1.32 1.32 2 2 C-1.63 2 -5.26 2 -9 2 C-9.66 3.32 -10.32 4.64 -11 6 C-14.42184913 9.42184913 -18.92446519 9.07154913 -23.5625 9.1875 C-27.1147683 9.15749773 -29.7962036 8.65357233 -33 7 C-30.22316642 5.61158321 -28.09150184 6.12657241 -25 6.3125 C-18.65248644 6.40347869 -15.41674025 4.88776161 -10.29296875 1.34375 C-6.64835915 -0.79210299 -4.12745421 -0.58963632 0 0 Z " fill="#C5B2F5" transform="translate(148,116)"/>
<path d="M0 0 C-0.33 0.99 -0.66 1.98 -1 3 C-1.70125 2.71125 -2.4025 2.4225 -3.125 2.125 C-4.07375 1.75375 -5.0225 1.3825 -6 1 C-7.36125 0.4121875 -7.36125 0.4121875 -8.75 -0.1875 C-14.51268691 -1.62817173 -19.75233592 -0.92662764 -25 1.875 C-28.23632146 3.72335829 -28.23632146 3.72335829 -29 7 C-29.66 7 -30.32 7 -31 7 C-31 5.02 -31 3.04 -31 1 C-19.29936783 -3.43475737 -11.81165045 -4.1427083 0 0 Z " fill="#C6B2F5" transform="translate(118,112)"/>
<path d="M0 0 C14.0727767 0.67013222 28.5282909 5.51699268 41 12 C41.495 12.99 41.495 12.99 42 14 C36.78546741 12.32074374 31.70536029 10.48906724 26.625 8.4375 C21.45927091 6.41374966 16.53092233 5.15186739 11.046875 4.359375 C9 4 9 4 8 3 C5.66702567 2.95907063 3.33294775 2.95758277 1 3 C0.67 2.01 0.34 1.02 0 0 Z " fill="#F1EBFB" transform="translate(162,0)"/>
<path d="M0 0 C0.66 0.33 1.32 0.66 2 1 C1.2575 1.680625 0.515 2.36125 -0.25 3.0625 C-3.25269695 6.05669072 -5.02516604 9.25462525 -7 13 C-7.391875 13.70125 -7.78375 14.4025 -8.1875 15.125 C-9.92857956 19.1428759 -10.19784379 23.4887192 -10.5625 27.8125 C-10.64628906 28.78832031 -10.73007813 29.76414062 -10.81640625 30.76953125 C-10.87699219 31.50558594 -10.93757813 32.24164063 -11 33 C-11.33 33 -11.66 33 -12 33 C-12.61055519 22.06427813 -12.70795007 13.52168675 -5.109375 4.83984375 C-3.4583334 3.15188862 -1.78042099 1.54953066 0 0 Z " fill="#CAB5F6" transform="translate(78,61)"/>
<path d="M0 0 C4.29 0 8.58 0 13 0 C13 0.33 13 0.66 13 1 C12.29875 1.08636719 11.5975 1.17273438 10.875 1.26171875 C4.89294302 2.14764838 0.85711436 3.44505215 -4.0859375 6.8828125 C-7.38501132 8.80839436 -10.20417714 8.93566402 -14 9 C-14.99 8.34 -15.98 7.68 -17 7 C-16.11248047 6.96132812 -16.11248047 6.96132812 -15.20703125 6.921875 C-9.81612612 6.53492586 -7.10130457 5.73942476 -3 2 C-2.01 2 -1.02 2 0 2 C0 1.34 0 0.68 0 0 Z " fill="#CDBDF5" transform="translate(176,85)"/>
<path d="M0 0 C0.66 0.33 1.32 0.66 2 1 C0.8795571 2.1204429 -0.24123199 3.24054078 -1.36328125 4.359375 C-2.59490076 5.59393394 -3.82044238 6.83456089 -5.04296875 8.078125 C-5.75066406 8.79484375 -6.45835938 9.5115625 -7.1875 10.25 C-7.86167969 10.93578125 -8.53585938 11.6215625 -9.23046875 12.328125 C-12.41179749 15.33388372 -14.73688696 15.09267637 -19 15 C-19 14.01 -19 13.02 -19 12 C-16.03 12.495 -16.03 12.495 -13 13 C-13 12.34 -13 11.68 -13 11 C-11.28144138 9.77717944 -9.55990605 8.5580825 -7.81640625 7.37109375 C-5.42958185 5.5694263 -3.78588508 3.38118011 -2 1 C-1.34 0.67 -0.68 0.34 0 0 Z " fill="#9A77F1" transform="translate(119,188)"/>
<path d="M0 0 C0 0.66 0 1.32 0 2 C0.928125 2.061875 1.85625 2.12375 2.8125 2.1875 C6 3 6 3 7.875 5.5625 C8.431875 6.7690625 8.431875 6.7690625 9 8 C6.72131414 6.86065707 4.5456311 5.71872402 2.375 4.375 C-2.72841848 2.29582951 -7.89275292 2.03967852 -13.19921875 3.6796875 C-14.83441829 4.3762228 -16.42421198 5.17784973 -18 6 C-17.125 2.125 -17.125 2.125 -16 1 C-13.69198069 0.76365415 -11.3778579 0.58558888 -9.0625 0.4375 C-7.16177734 0.31181641 -7.16177734 0.31181641 -5.22265625 0.18359375 C-3.48351546 0.08451543 -1.74196074 0 0 0 Z " fill="#D0BEF7" transform="translate(150,84)"/>
<path d="M0 0 C0.33 0.99 0.66 1.98 1 3 C-0.7325 2.87625 -0.7325 2.87625 -2.5 2.75 C-7.39304621 2.71504967 -10.86849494 4.53867784 -15 7 C-14.06117241 3.52633793 -13.30769804 2.21467305 -10.3125 0.125 C-6.42670983 -1.19470232 -3.96701283 -0.87274282 0 0 Z " fill="#B096F1" transform="translate(190,141)"/>
<path d="M0 0 C0.556875 0.144375 1.11375 0.28875 1.6875 0.4375 C2.8321875 0.7159375 2.8321875 0.7159375 4 1 C4.804375 1.226875 5.60875 1.45375 6.4375 1.6875 C9.54495492 2.06645792 11.14396137 1.17170816 14 0 C16.3125 0.375 16.3125 0.375 18 1 C12.7261808 4.51587947 9.37195954 5.95579393 3 5 C1 2.5 1 2.5 0 0 Z " fill="#AD92F0" transform="translate(116,137)"/>
<path d="M0 0 C0 0.99 0 1.98 0 3 C-0.61875 3.2475 -1.2375 3.495 -1.875 3.75 C-4.10780889 4.78674189 -4.10780889 4.78674189 -4.78125 6.75 C-6.47454659 9.87608602 -8.98277544 11.94308313 -11.625 14.25 C-12.140625 14.70890625 -12.65625 15.1678125 -13.1875 15.640625 C-14.4534602 16.76592296 -15.72607942 17.88372177 -17 19 C-17.66 18.67 -18.32 18.34 -19 18 C-17.54782324 16.49403892 -16.08807139 14.99537896 -14.625 13.5 C-13.81289062 12.6646875 -13.00078125 11.829375 -12.1640625 10.96875 C-10 9 -10 9 -8 9 C-7.79375 8.443125 -7.5875 7.88625 -7.375 7.3125 C-5.44999226 4.07498698 -2.96149098 2.31768859 0 0 Z " fill="#C3A7FD" transform="translate(127,183)"/>
<path d="M0 0 C0.66 0.33 1.32 0.66 2 1 C1.814375 1.928125 1.62875 2.85625 1.4375 3.8125 C0.75876119 7.01343771 0.75876119 7.01343771 2 10 C5.465 9.505 5.465 9.505 9 9 C8.01 10.485 8.01 10.485 7 12 C2.545 11.01 2.545 11.01 -2 10 C-2 7.03 -2 4.06 -2 1 C-1.34 0.67 -0.68 0.34 0 0 Z " fill="#A688F1" transform="translate(88,136)"/>
<path d="M0 0 C0.5775 0.20625 1.155 0.4125 1.75 0.625 C-1.12180423 3.49680423 -4.3283417 4.81936222 -8.25 5.625 C-12.55319117 5.30345789 -16.15185583 4.72314417 -19.25 1.625 C-17.91195312 1.65980469 -17.91195312 1.65980469 -16.546875 1.6953125 C-15.37640625 1.71335937 -14.2059375 1.73140625 -13 1.75 C-11.83984375 1.77320312 -10.6796875 1.79640625 -9.484375 1.8203125 C-5.92755983 1.60552898 -3.3575815 -0.55959692 0 0 Z " fill="#A789F1" transform="translate(175.25,122.375)"/>
<path d="M0 0 C0.66 0.66 1.32 1.32 2 2 C0.88625 1.9175 -0.2275 1.835 -1.375 1.75 C-7.43554245 1.71753281 -12.66922027 4.33461013 -18 7 C-16.125 2.125 -16.125 2.125 -15 1 C-9.93226626 0.06919176 -5.12988593 -0.26084166 0 0 Z " fill="#CAB4F6" transform="translate(148,109)"/>
<path d="M0 0 C1.134375 0.639375 2.26875 1.27875 3.4375 1.9375 C7.90183812 4.19762109 12.04556318 4.77062793 17 5 C15.5 6.5625 15.5 6.5625 13 8 C7.91826701 8 5.9708833 7.78884268 2 4.5625 C0 2 0 2 0 0 Z " fill="#CDB9F7" transform="translate(110,94)"/>
<path d="M0 0 C1.21236328 0.01353516 1.21236328 0.01353516 2.44921875 0.02734375 C3.37154297 0.04474609 3.37154297 0.04474609 4.3125 0.0625 C4.3125 0.3925 4.3125 0.7225 4.3125 1.0625 C3.64863281 1.24425781 2.98476562 1.42601563 2.30078125 1.61328125 C-2.4803384 2.97432991 -6.46856582 4.3777237 -10.6875 7.0625 C-11.6775 7.0625 -12.6675 7.0625 -13.6875 7.0625 C-13.6875 6.4025 -13.6875 5.7425 -13.6875 5.0625 C-10.6875 3.0625 -10.6875 3.0625 -7.6875 3.0625 C-7.6875 2.4025 -7.6875 1.7425 -7.6875 1.0625 C-4.80538698 0.10179566 -2.98899956 -0.04331883 0 0 Z " fill="#C6B2F4" transform="translate(180.6875,109.9375)"/>
<path d="M0 0 C6.875 0.875 6.875 0.875 8 2 C11.52637472 2.15672777 14.61905851 2.04028969 18 1 C16.11243599 3.55376307 14.87588133 4.03341657 11.75 4.875 C7.13454102 5.02884863 5.02706098 4.17461293 1 2 C0.67 1.34 0.34 0.68 0 0 Z " fill="#CEBDF2" transform="translate(114,89)"/>
<path d="M0 0 C5.75762166 1.08896667 11.39247819 2.29336293 17 4 C17 4.33 17 4.66 17 5 C14.89551062 4.85890014 12.7914123 4.71195825 10.6875 4.5625 C9.51574219 4.48128906 8.34398438 4.40007812 7.13671875 4.31640625 C4 4 4 4 1 3 C0.67 2.01 0.34 1.02 0 0 Z " fill="#C4B0F2" transform="translate(101,241)"/>
<path d="M0 0 C0.70189453 0.00451172 1.40378906 0.00902344 2.12695312 0.01367188 C3.85550538 0.02543073 5.58401365 0.04336546 7.3125 0.0625 C7.3125 0.3925 7.3125 0.7225 7.3125 1.0625 C5.88357422 1.22685547 5.88357422 1.22685547 4.42578125 1.39453125 C2.54439453 1.63236328 2.54439453 1.63236328 0.625 1.875 C-1.23705078 2.10123047 -1.23705078 2.10123047 -3.13671875 2.33203125 C-6.62267782 3.04916474 -8.79358786 4.04284812 -11.6875 6.0625 C-11.3575 4.4125 -11.0275 2.7625 -10.6875 1.0625 C-7.06882441 -0.1437252 -3.76243749 -0.04566918 0 0 Z " fill="#BCA5F2" transform="translate(100.6875,133.9375)"/>
<path d="M0 0 C2 0 2 0 3.5625 1.375 C5 3 5 3 6 5 C6.66 5 7.32 5 8 5 C9.625 6.375 9.625 6.375 11 8 C11 8.66 11 9.32 11 10 C7.6989701 9.40114059 5.78574977 8.30314403 3.25 6.125 C2.63640625 5.61195313 2.0228125 5.09890625 1.390625 4.5703125 C0 3 0 3 0 0 Z " fill="#CDBCF5" transform="translate(56,213)"/>
<path d="M0 0 C0.99 0 1.98 0 3 0 C1.65843569 2.90779249 0.13892965 5.2517899 -1.9375 7.6875 C-2.44152344 8.28949219 -2.94554687 8.89148438 -3.46484375 9.51171875 C-5 11 -5 11 -8 12 C-6.60178299 9.02962512 -4.99407657 6.40407467 -3.0625 3.75 C-2.55847656 3.04359375 -2.05445313 2.3371875 -1.53515625 1.609375 C-1.02855469 1.07828125 -0.52195312 0.5471875 0 0 Z " fill="#E6DCF8" transform="translate(48,42)"/>
<path d="M0 0 C1.32 0 2.64 0 4 0 C4.04241723 2.33294775 4.04092937 4.66702567 4 7 C3 8 3 8 0.125 8.1875 C-3 8 -3 8 -6 6 C-5.67 5.34 -5.34 4.68 -5 4 C-3.824375 4.495 -3.824375 4.495 -2.625 5 C-0.15667503 6.11866511 -0.15667503 6.11866511 2 6 C1.34 4.02 0.68 2.04 0 0 Z " fill="#C6B0F7" transform="translate(198,114)"/>
<path d="M0 0 C-0.99 0.495 -0.99 0.495 -2 1 C-2 1.66 -2 2.32 -2 3 C-7.94 3.495 -7.94 3.495 -14 4 C-13 2 -13 2 -10.375 0.875 C-6.78189212 -0.05654649 -3.69584376 -0.14783375 0 0 Z " fill="#D1BAF9" transform="translate(172,246)"/>
<path d="M0 0 C4.29 0 8.58 0 13 0 C13.33 0.99 13.66 1.98 14 3 C16.00016466 4.20882096 16.00016466 4.20882096 18 5 C15 5 15 5 12 4 C12 3.34 12 2.68 12 2 C7.71 2 3.42 2 -1 2 C-0.67 1.34 -0.34 0.68 0 0 Z " fill="#B8A3F3" transform="translate(138,108)"/>
<path d="M0 0 C0 0.33 0 0.66 0 1 C-1.85625 1.1546875 -1.85625 1.1546875 -3.75 1.3125 C-7.38935661 1.7417903 -9.1145152 2.73283337 -12 5 C-14.25 4.6875 -14.25 4.6875 -16 4 C-9.95695991 -0.25759643 -7.25940707 -1.48487872 0 0 Z " fill="#BAA7F5" transform="translate(149,141)"/>
<path d="M0 0 C0.99 0 1.98 0 3 0 C3 0.66 3 1.32 3 2 C1.38542921 3.43581474 -0.29219075 4.80144783 -2 6.125 C-2.928125 6.84945312 -3.85625 7.57390625 -4.8125 8.3203125 C-5.534375 8.87460938 -6.25625 9.42890625 -7 10 C-7 7 -7 7 -4.625 4.3125 C-2 2 -2 2 0 2 C0 1.34 0 0.68 0 0 Z " fill="#9774F0" transform="translate(129,178)"/>
<path d="M0 0 C4.38889325 0.66498383 7.9811485 2.18757677 12 4 C12 4.66 12 5.32 12 6 C7.87202695 5.39294514 4.62561178 4.06000669 1 2 C0.67 1.34 0.34 0.68 0 0 Z " fill="#CBB9F2" transform="translate(81,233)"/>
<path d="M0 0 C2.50356732 3.75535098 1.9608592 4.86889414 1.125 9.1875 C0.92132812 10.27417969 0.71765625 11.36085938 0.5078125 12.48046875 C0.34023438 13.31191406 0.17265625 14.14335938 0 15 C-0.33 15 -0.66 15 -1 15 C-1.02685412 12.68756208 -1.04632841 10.3750373 -1.0625 8.0625 C-1.07410156 6.77472656 -1.08570312 5.48695312 -1.09765625 4.16015625 C-1 1 -1 1 0 0 Z " fill="#D5C7F3" transform="translate(21,101)"/>
<path d="M0 0 C0.99 0.33 1.98 0.66 3 1 C-3.28571429 6.57142857 -3.28571429 6.57142857 -7 7 C-4.78071806 4.09197539 -3.07030857 2.04687238 0 0 Z " fill="#E9DEF8" transform="translate(64,27)"/>
<path d="M0 0 C0 0.33 0 0.66 0 1 C-1.98 1 -3.96 1 -6 1 C-6 1.66 -6 2.32 -6 3 C-7.65 3.66 -9.3 4.32 -11 5 C-11.66 4.34 -12.32 3.68 -13 3 C-8.51925805 -0.36055646 -5.39449293 -0.27429625 0 0 Z " fill="#CDBBF8" transform="translate(148,92)"/>
<path d="M0 0 C2 1 2 1 3.1875 3.3125 C4.03624754 6.11989571 3.99928333 7.301935 3 10 C0.64551835 7.44931155 0.01672076 6.28982642 -0.1875 2.75 C-0.125625 1.8425 -0.06375 0.935 0 0 Z " fill="#D1C0F7" transform="translate(25,162)"/>
<path d="M0 0 C0.75 1.75 0.75 1.75 1 4 C-0.6875 6.3125 -0.6875 6.3125 -3 8 C-5.25 7.75 -5.25 7.75 -7 7 C-5.47005208 5.76302083 -3.94010417 4.52604167 -2.41015625 3.2890625 C-0.86733563 2.0333609 -0.86733563 2.0333609 0 0 Z " fill="#9C7BF1" transform="translate(215,166)"/>
<path d="M0 0 C5.39449293 -0.27429625 8.51925805 -0.36055646 13 3 C9.57056481 4.18771723 7.62215325 3.80226223 4.25 2.5625 C3.45078125 2.27503906 2.6515625 1.98757812 1.828125 1.69140625 C1.22484375 1.46324219 0.6215625 1.23507813 0 1 C0 0.67 0 0.34 0 0 Z " fill="#C5B0F4" transform="translate(183,93)"/>
<path d="M0 0 C0.66 0.33 1.32 0.66 2 1 C1.0625 3 1.0625 3 -1 5 C-4.02534949 5.36475845 -6.96663814 5.22893297 -10 5 C-7.78921079 3.87339313 -5.62330188 2.85107284 -3.3125 1.9375 C-1.07564034 1.20552034 -1.07564034 1.20552034 0 0 Z " fill="#CCB3FE" transform="translate(210,174)"/>
<path d="M0 0 C3.11198065 1.49836105 6.0534615 3.19933758 9 5 C7.3125 5.8125 7.3125 5.8125 5 6 C2.25 3.625 2.25 3.625 0 1 C0 0.67 0 0.34 0 0 Z " fill="#D0BDF7" transform="translate(70,225)"/>
<path d="M0 0 C1.98 0.99 1.98 0.99 4 2 C4 2.66 4 3.32 4 4 C4.66 4 5.32 4 6 4 C6 4.66 6 5.32 6 6 C4.125 5.8125 4.125 5.8125 2 5 C0.75 2.4375 0.75 2.4375 0 0 Z " fill="#CDBCF5" transform="translate(44,200)"/>
<path d="M0 0 C2.64 0.66 5.28 1.32 8 2 C7.67 2.99 7.34 3.98 7 5 C3.34683329 3.75023244 2.21934164 3.32901247 0 0 Z " fill="#C0ABF3" transform="translate(110,110)"/>
<path d="M0 0 C1.258125 -0.04125 2.51625 -0.0825 3.8125 -0.125 C4.52019531 -0.14820312 5.22789062 -0.17140625 5.95703125 -0.1953125 C8 0 8 0 11 2 C11 2.66 11 3.32 11 4 C7.37 3.01 3.74 2.02 0 1 C0 0.67 0 0.34 0 0 Z " fill="#C7B7F5" transform="translate(187,110)"/>
<path d="M0 0 C3.465 1.98 3.465 1.98 7 4 C7 4.33 7 4.66 7 5 C4.69 5 2.38 5 0 5 C0 3.35 0 1.7 0 0 Z " fill="#C6B6F6" transform="translate(151,94)"/>
<path d="M0 0 C0.66 0.33 1.32 0.66 2 1 C2 1.66 2 2.32 2 3 C-0.95664519 4.4783226 -3.74229737 4.06032783 -7 4 C-6.67 3.34 -6.34 2.68 -6 2 C-4.34178227 1.62690101 -2.67422986 1.29299023 -1 1 C-0.67 0.67 -0.34 0.34 0 0 Z " fill="#CAB5F8" transform="translate(181,242)"/>
<path d="M0 0 C-3.625 3 -3.625 3 -7 3 C-7 2.01 -7 1.02 -7 0 C-3.86650268 -1.04449911 -3.01031744 -0.93423645 0 0 Z " fill="#B89DF2" transform="translate(134,138)"/>
</svg>
